<svg viewBox="0 0 40 40" fill="none" xmlns="http://www.w3.org/2000/svg">
  <path fill-rule="evenodd" clip-rule="evenodd" d="M20 8C20.895 8 21.7664 8.10129 22.6055 8.28711C22.7208 8.31265 22.8361 8.33737 22.9502 8.36621C23.04 8.38891 23.1288 8.41474 23.2178 8.43945C23.3017 8.46276 23.3856 8.48567 23.4688 8.51074C23.5753 8.54286 23.6809 8.57732 23.7861 8.6123C23.8534 8.63466 23.9206 8.65716 23.9873 8.68066C24.085 8.71507 24.1818 8.75124 24.2783 8.78809C24.3598 8.81919 24.4409 8.85097 24.5215 8.88379C24.6046 8.91761 24.6874 8.95168 24.7695 8.9873C24.8641 9.02833 24.9575 9.07187 25.0508 9.11523C25.1235 9.14903 25.1967 9.1816 25.2686 9.2168C25.3527 9.25798 25.4355 9.30164 25.5186 9.34473C25.6023 9.38816 25.686 9.43123 25.7686 9.47656C25.7945 9.49081 25.8199 9.50607 25.8457 9.52051C26.034 9.62576 26.2185 9.73663 26.4004 9.85156C26.4917 9.90924 26.5833 9.96632 26.6729 10.0264C26.7345 10.0677 26.7947 10.1109 26.8555 10.1533C26.9409 10.2129 27.0265 10.2722 27.1104 10.334C27.182 10.3868 27.2519 10.4418 27.3223 10.4961C27.3961 10.553 27.4695 10.6103 27.542 10.6689C27.608 10.7224 27.6735 10.7763 27.7383 10.8311C27.8116 10.893 27.8842 10.9559 27.9561 11.0195C28.0225 11.0784 28.0882 11.1379 28.1533 11.1982C28.2236 11.2634 28.2926 11.3297 28.3613 11.3965C28.4175 11.451 28.4742 11.5049 28.5293 11.5605C28.6176 11.6497 28.7036 11.7411 28.7891 11.833C28.8267 11.8735 28.8653 11.9131 28.9023 11.9541C29.1439 12.2212 29.3738 12.499 29.5908 12.7871C29.6294 12.8383 29.6653 12.8915 29.7031 12.9434C29.7756 13.0428 29.8476 13.1425 29.917 13.2441C29.9529 13.2967 29.9874 13.3502 30.0225 13.4033C30.0848 13.4979 30.1463 13.593 30.2061 13.6895C30.2451 13.7525 30.2834 13.8161 30.3213 13.8799C30.3813 13.9809 30.44 14.0827 30.4971 14.1855C30.5279 14.2411 30.5589 14.2965 30.5889 14.3525C30.6454 14.4583 30.6995 14.5653 30.7529 14.6729C30.7815 14.7303 30.8103 14.7877 30.8379 14.8457C30.9034 14.9832 30.966 15.1223 31.0264 15.2627C31.0378 15.2892 31.0503 15.3152 31.0615 15.3418C31.2074 15.6877 31.3377 16.0418 31.4512 16.4033C31.468 16.4569 31.482 16.5115 31.498 16.5654C31.5347 16.6881 31.5708 16.8112 31.6035 16.9355C31.6208 17.0013 31.6361 17.0676 31.6523 17.1338C31.682 17.2546 31.7104 17.3758 31.7363 17.498C31.7912 17.7568 31.8381 18.0185 31.876 18.2832C31.8844 18.3421 31.8938 18.4008 31.9014 18.46C31.9183 18.5918 31.9327 18.7243 31.9453 18.8574C31.9498 18.9046 31.9541 18.9517 31.958 18.999C31.9696 19.1393 31.9786 19.2803 31.9854 19.4219C31.9869 19.4544 31.988 19.4869 31.9893 19.5195C31.9955 19.6789 32 19.8391 32 20L31.9961 20.3096C31.9935 20.4124 31.9896 20.515 31.9844 20.6172C31.974 20.8217 31.959 21.0249 31.9385 21.2266C31.918 21.4283 31.8927 21.6285 31.8623 21.8271C31.8016 22.2245 31.7217 22.6155 31.623 22.999C31.327 24.1494 30.8642 25.2329 30.2627 26.2227C30.1626 26.3874 30.0588 26.5496 29.9512 26.709C29.1963 27.8264 28.258 28.8099 27.1797 29.6162C27.0259 29.7312 26.8693 29.8425 26.71 29.9502C26.3907 30.1659 26.0608 30.367 25.7207 30.5518C24.8704 31.0137 23.9578 31.3754 22.999 31.6221C22.6158 31.7207 22.2252 31.8006 21.8281 31.8613C21.5301 31.9069 21.2286 31.9416 20.9238 31.9648C20.7208 31.9803 20.5163 31.9909 20.3105 31.9961C20.2074 31.9987 20.1038 32 20 32C19.868 32 19.7365 31.9964 19.6055 31.9922C19.5742 31.9912 19.5429 31.9905 19.5117 31.9893C19.4157 31.9854 19.32 31.9797 19.2246 31.9736C19.1822 31.9709 19.1399 31.969 19.0977 31.9658C18.9724 31.9565 18.8477 31.9457 18.7236 31.9326C18.707 31.9309 18.6904 31.9286 18.6738 31.9268C18.5669 31.915 18.4605 31.9013 18.3545 31.8867C18.316 31.8814 18.2776 31.8758 18.2393 31.8701C18.1281 31.8538 18.0174 31.8368 17.9072 31.8174C17.8821 31.813 17.8571 31.8083 17.832 31.8037C17.7369 31.7863 17.6422 31.7676 17.5479 31.748C17.3703 31.7111 17.1941 31.6706 17.0195 31.626C16.9852 31.6172 16.9512 31.6067 16.917 31.5977C16.7961 31.5656 16.676 31.5318 16.5566 31.4961C16.4802 31.4732 16.4039 31.4501 16.3281 31.4258C16.2061 31.3866 16.0852 31.3448 15.9648 31.3018C15.9123 31.283 15.8598 31.2646 15.8076 31.2451C15.6717 31.1944 15.5369 31.1414 15.4033 31.0859C15.3447 31.0616 15.2867 31.036 15.2285 31.0107C15.1295 30.9677 15.0312 30.9235 14.9336 30.8779C14.8703 30.8484 14.8068 30.8196 14.7441 30.7891C14.6108 30.7239 14.4791 30.6558 14.3486 30.5859C14.2837 30.5512 14.2195 30.5154 14.1553 30.4795C14.074 30.434 13.9932 30.3881 13.9131 30.3408C13.8383 30.2967 13.7642 30.2517 13.6904 30.2061C13.5714 30.1322 13.4531 30.0573 13.3369 29.9795C13.2651 29.9315 13.1947 29.8816 13.124 29.832C13.0671 29.7921 13.0103 29.7518 12.9541 29.7109C12.8679 29.6483 12.7827 29.5844 12.6982 29.5195C12.6736 29.5006 12.6495 29.481 12.625 29.4619C12.4659 29.3377 12.3098 29.21 12.1572 29.0781C12.1148 29.0414 12.0722 29.0051 12.0303 28.9678C11.9474 28.8941 11.8659 28.8191 11.7852 28.7432C11.7652 28.7244 11.7454 28.7054 11.7256 28.6865C9.43175 26.5009 8 23.4186 8 20C8 13.3726 13.3726 8 20 8ZM20 11C15.0294 11 11 15.0294 11 20C11 22.1549 11.7584 24.1321 13.0215 25.6816C19.0511 25.0465 23.75 19.9479 23.75 13.75C23.75 13.0653 23.6908 12.3944 23.5801 11.7412C22.4828 11.2649 21.2724 11 20 11Z" fill="currentColor"/>
</svg>
