<svg viewBox="0 0 40 40" fill="none" xmlns="http://www.w3.org/2000/svg">
  <path fill-rule="evenodd" clip-rule="evenodd" d="M20 6.5C20.8284 6.5 21.5 7.17157 21.5 8V12.1416C22.5939 12.3491 23.6088 12.7788 24.4961 13.3828L27.4248 10.4551C28.0106 9.86944 28.9601 9.86944 29.5459 10.4551C30.1316 11.0408 30.1316 11.9904 29.5459 12.5762L26.6172 15.5039C27.2212 16.3912 27.6509 17.4061 27.8584 18.5H32C32.8284 18.5 33.5 19.1716 33.5 20C33.5 20.8284 32.8284 21.5 32 21.5H27.8584C27.6509 22.5936 27.221 23.608 26.6172 24.4951L29.5459 27.4238C30.1315 28.0096 30.1315 28.9592 29.5459 29.5449C28.9601 30.1307 28.0106 30.1306 27.4248 29.5449L24.4961 26.6162C23.6088 27.2204 22.594 27.6498 21.5 27.8574V32C21.5 32.8284 20.8284 33.5 20 33.5C19.1716 33.5 18.5 32.8284 18.5 32V27.8574C17.4062 27.6499 16.3911 27.2212 15.5039 26.6172L12.5752 29.5469C11.9894 30.1326 11.0399 30.1327 10.4541 29.5469C9.86844 28.9611 9.86838 28.0115 10.4541 27.4258L13.3828 24.4961C12.7788 23.6088 12.3491 22.5939 12.1416 21.5H8C7.17157 21.5 6.5 20.8284 6.5 20C6.5 19.1716 7.17157 18.5 8 18.5H12.1416C12.3492 17.4058 12.7785 16.3904 13.3828 15.5029L10.4541 12.5742C9.86834 11.9884 9.86832 11.0389 10.4541 10.4531C11.0399 9.86746 11.9894 9.8674 12.5752 10.4531L15.5039 13.3818C16.3911 12.778 17.4063 12.3491 18.5 12.1416V8C18.5 7.17157 19.1716 6.5 20 6.5ZM20 15C17.2386 15 15 17.2386 15 20C15 22.7614 17.2386 25 20 25C22.7614 25 25 22.7614 25 20C25 17.2386 22.7614 15 20 15Z" fill="currentColor"/>
</svg>
