<svg viewBox="0 0 200 16" fill="none" xmlns="http://www.w3.org/2000/svg">
<path fill-rule="evenodd" clip-rule="evenodd" d="M149.443 4.6349C148.352 2.24901 146.154 1.20002 143.721 0.704029C141.678 0.285002 139.507 0.0227534 137.475 0.00565027C135.048 -0.0314066 132.638 0.250795 130.303 0.940623C128.342 1.51928 126.694 2.52551 125.623 4.30139C124.846 5.59303 124.857 7.00407 124.868 8.42419C124.868 8.50842 124.869 8.59268 124.869 8.67695C124.884 11.2852 126.185 13.0981 128.458 14.3238C130.676 15.5211 133.132 15.7805 135.592 15.9344C138.208 16.0997 140.822 15.9657 143.392 15.4241C144.833 15.1191 146.204 14.6146 147.415 13.7537C149.659 12.1574 150.282 9.88557 150.116 7.35145C150.055 6.43359 149.825 5.47581 149.44 4.6349H149.443ZM140.164 10.5611C138.389 11.2481 136.549 11.2738 134.789 10.544C133.685 10.088 132.972 9.2271 133.045 7.94151C132.937 6.65593 133.747 5.7181 135.094 5.30193C136.771 4.78598 138.473 4.77743 140.135 5.4473C141.279 5.90909 141.864 6.71579 141.876 7.95006C141.885 9.20144 141.32 10.1079 140.161 10.5583L140.164 10.5611Z" fill="currentColor"/>
<path d="M93.4351 0.404735C93.1557 0.410436 92.7919 0.672685 92.6202 0.92068C91.9848 1.83289 91.3734 2.76082 90.7617 3.68938L90.7602 3.69163L90.7597 3.6924L90.7593 3.69298L90.759 3.69337C90.4694 4.13304 90.1796 4.57285 89.8871 5.01118C89.4156 5.71811 89.3749 5.71811 88.8073 5.00548C88.5466 4.67692 88.2849 4.34905 88.0231 4.02115L88.0228 4.02079C87.2151 3.00889 86.4071 1.99673 85.629 0.963438C85.2855 0.507354 84.913 0.370529 84.3571 0.370529C83.6662 0.372613 82.9754 0.374908 82.2845 0.377204L82.2838 0.377206C77.3046 0.393751 72.3235 0.410302 67.3448 0.347725C66.2242 0.333472 65.6945 0.718293 65.2259 1.63901C64.5802 2.90366 63.8723 4.1364 63.1415 5.40884C62.8247 5.96049 62.5036 6.51966 62.1814 7.09207C62.1175 6.99995 62.0593 6.91944 62.0063 6.84612L62.0058 6.84553L62.0055 6.84514C61.8949 6.69206 61.8069 6.57019 61.7361 6.4393C61.2816 5.60523 60.829 4.7699 60.3766 3.93479L60.3754 3.93253L60.3752 3.93222L60.3751 3.93194C59.8631 2.98706 59.3514 2.04246 58.8372 1.10026C58.8287 1.08473 58.8203 1.06924 58.812 1.05381L58.8112 1.05242L58.8085 1.04733L58.8074 1.04528C58.611 0.68193 58.4351 0.356549 57.8476 0.361977C54.7944 0.401885 51.7412 0.390483 48.6851 0.370529C48.1408 0.367678 47.9604 0.550112 47.9604 1.06321C47.9691 5.67821 47.9691 10.2932 47.9604 14.9082C47.9604 15.4755 48.1583 15.7007 48.7695 15.6893C50.8535 15.6579 52.9374 15.655 55.0214 15.6893C55.749 15.7035 55.9324 15.4213 55.9208 14.7657C55.8931 13.3419 55.9001 11.918 55.9071 10.4942V10.4937C55.909 10.119 55.9108 9.74431 55.912 9.36964C55.912 9.21813 55.926 9.06663 55.9444 8.86747C55.9551 8.75191 55.9672 8.62011 55.979 8.46317C56.0533 8.57167 56.1063 8.6455 56.1459 8.70059C56.1977 8.77273 56.2266 8.81291 56.2497 8.85654C56.5003 9.3056 56.7514 9.7544 57.0025 10.2032L57.0028 10.2037L57.003 10.2041L57.0032 10.2044C57.9122 11.8291 58.8211 13.4538 59.7103 15.0906C59.9461 15.5239 60.2284 15.7064 60.729 15.6864C61.07 15.6734 61.4119 15.678 61.7534 15.6826C62.237 15.6891 62.7196 15.6956 63.1972 15.6522C63.5115 15.6237 63.9278 15.3814 64.082 15.1191C64.9008 13.7089 65.695 12.2853 66.4889 10.862C66.8521 10.211 67.2151 9.56017 67.5805 8.9107C67.6214 8.83614 67.6871 8.77434 67.7936 8.67422C67.854 8.61741 67.9276 8.54827 68.0171 8.45747V9.4352C68.0171 9.98859 68.0182 10.542 68.0193 11.0954V11.0967C68.0218 12.3415 68.0243 13.5864 68.0142 14.8312C68.0084 15.4527 68.2238 15.7064 68.9077 15.6921C70.3029 15.6647 71.6994 15.6695 73.0955 15.6743H73.0964C73.7357 15.6765 74.3752 15.6787 75.0141 15.6779C75.9775 15.6779 75.9979 15.655 75.9979 14.7286V1.52214C75.9979 1.34456 76.0094 1.16697 76.0248 0.929637L76.0248 0.929332L76.0248 0.928875L76.0249 0.927919C76.0327 0.807579 76.0415 0.671878 76.0503 0.513055C76.2454 0.740674 76.4206 0.947258 76.5839 1.13981L76.5851 1.14129L76.5858 1.14208C76.8675 1.47426 77.1138 1.76472 77.3659 2.04949C78.0194 2.79166 78.674 3.53311 79.3285 4.27454C80.9213 6.07892 82.5141 7.88317 84.0922 9.69745C84.2843 9.91694 84.4677 10.3502 84.3687 10.5441C84.2639 10.7493 83.8215 10.869 83.5188 10.889C82.9984 10.9229 82.4765 10.9163 81.9272 10.9093C81.6931 10.9063 81.4539 10.9032 81.2078 10.9032C81.2078 11.245 81.2069 11.5814 81.2061 11.9137C81.2031 13.0587 81.2002 14.1545 81.234 15.2503C81.2398 15.3956 81.6066 15.6408 81.819 15.6522C82.6398 15.7007 83.4693 15.7178 84.2901 15.6607L84.3689 15.6555C85.4985 15.5803 86.6356 15.5047 87.7421 15.2902C89.4768 14.9538 90.5915 13.7224 91.6248 12.4425C94.2646 9.1644 96.8958 5.88059 99.5211 2.59109C99.8762 2.14796 100.214 1.69134 100.567 1.21399C100.752 0.963592 100.941 0.707492 101.139 0.444643C101.043 0.43049 100.969 0.418 100.91 0.407968C100.815 0.391732 100.757 0.381931 100.7 0.381931C100.215 0.381361 99.73 0.380221 99.2451 0.37908C97.3056 0.37452 95.3666 0.36996 93.4293 0.401885L93.4351 0.404735Z" fill="currentColor"/>
<path d="M45.7658 0.370485C43.7051 0.39614 41.6444 0.401841 39.5866 0.367634C38.9958 0.356232 38.5912 0.558619 38.1954 0.954842C36.1446 3.01214 34.0811 5.05687 32.0175 7.10161C31.6737 7.44229 31.3297 7.78317 30.9859 8.12391C30.8749 8.23441 30.7605 8.33951 30.6131 8.47507C30.5209 8.55982 30.4157 8.65652 30.2903 8.77383C30.2727 8.60823 30.2545 8.46516 30.2381 8.33665C30.2082 8.10237 30.1845 7.91646 30.1826 7.73054C30.1738 5.52994 30.168 3.32933 30.1826 1.12872C30.1855 0.604228 30.0341 0.361933 29.4375 0.367634C27.2575 0.39614 25.0745 0.393289 22.8945 0.367634C22.3561 0.361933 22.1756 0.530114 22.1785 1.06031C22.1931 5.67531 22.196 10.2903 22.1785 14.9053C22.1785 15.4925 22.3793 15.6921 22.9789 15.6864C24.9406 15.6607 26.9053 15.6493 28.867 15.6921C29.5772 15.7063 30.0865 15.5011 30.5813 14.9994C32.4268 13.127 34.2921 11.274 36.1574 9.42092L36.1638 9.41457C36.6704 8.91132 37.1769 8.40806 37.6831 7.90442C37.8215 7.76699 37.9719 7.64008 38.1226 7.51297C38.1938 7.45289 38.265 7.39277 38.3351 7.33147C38.3933 7.35997 38.4544 7.38848 38.5126 7.41413V8.24079C38.5126 8.85199 38.5138 9.4632 38.5149 10.0744C38.5178 11.6638 38.5207 13.2532 38.5039 14.8426C38.4981 15.4412 38.6756 15.6949 39.3276 15.6864C41.461 15.6579 43.5945 15.6607 45.725 15.6864C46.3363 15.6921 46.5313 15.4498 46.5313 14.8854C46.5196 10.2932 46.5196 5.70382 46.5313 1.11162C46.5313 0.564321 46.3421 0.361933 45.7687 0.370485H45.7658Z" fill="currentColor"/>
<path d="M199.194 0.37334C199.787 0.364789 200 0.544372 200 1.13728L199.997 1.14298C199.982 5.73233 199.982 10.3188 199.997 14.9082C200 15.4897 199.77 15.6978 199.179 15.6921C197.049 15.6693 194.915 15.6636 192.785 15.6921C192.127 15.7006 191.955 15.4298 191.961 14.8398C191.977 13.1111 191.973 11.3842 191.969 9.65632C191.968 9.18457 191.967 8.71275 191.967 8.24079C191.967 8.05979 191.954 7.8788 191.937 7.63677V7.63624C191.928 7.51247 191.918 7.37274 191.909 7.2089C191.78 7.32621 191.67 7.42594 191.571 7.51496L191.57 7.51606C191.39 7.67744 191.25 7.80366 191.117 7.93578L190.513 8.53646C188.327 10.7108 186.141 12.8862 183.968 15.0735C183.535 15.5125 183.081 15.7063 182.443 15.6949C180.458 15.655 178.47 15.6636 176.485 15.6892C175.871 15.6978 175.63 15.5125 175.63 14.8797C175.65 10.2447 175.644 5.6069 175.63 0.971951C175.63 0.544372 175.752 0.379042 176.197 0.379042C178.473 0.393294 180.752 0.396145 183.028 0.379042C183.59 0.37334 183.651 0.675496 183.651 1.10307C183.647 2.58535 183.649 4.06762 183.65 5.54989C183.651 6.29103 183.651 7.03217 183.651 7.7733V8.58855C183.686 8.59711 183.722 8.60637 183.757 8.61563L183.789 8.62378C183.814 8.63028 183.839 8.63667 183.864 8.64271C184.159 8.35681 184.456 8.07146 184.753 7.78597L184.755 7.78401L184.756 7.7828C185.4 7.16421 186.044 6.5449 186.678 5.91761C188.358 4.25861 190.034 2.60245 191.693 0.926342C192.092 0.524418 192.508 0.361938 193.09 0.37049C195.125 0.404696 197.159 0.401846 199.194 0.37334Z" fill="currentColor"/>
<path d="M173.55 13.7765L173.575 13.7986C173.986 14.1704 174.397 14.5422 174.809 14.9139L174.806 14.9054C174.92 15.0095 175.023 15.1247 175.155 15.2717L175.156 15.2722C175.237 15.3624 175.329 15.4647 175.441 15.5838C175.314 15.5983 175.208 15.6124 175.115 15.6248C174.934 15.649 174.803 15.6665 174.672 15.6665C174.086 15.667 173.5 15.6682 172.914 15.6693C170.568 15.6739 168.221 15.6784 165.876 15.6465C165.492 15.6436 165.029 15.4356 164.747 15.1762C163.549 14.0769 162.372 12.9577 161.194 11.8386L161.194 11.8379L161.192 11.8365C160.642 11.3138 160.092 10.7911 159.54 10.2704C159.426 10.164 159.301 10.0679 159.14 9.94387L159.139 9.94307L159.137 9.94127C159.044 9.86981 158.94 9.78905 158.818 9.69175C158.81 9.84892 158.801 9.98144 158.793 10.0984C158.779 10.2995 158.769 10.4546 158.769 10.6096L158.767 11.087V11.0913C158.761 12.3736 158.756 13.6577 158.769 14.9396C158.775 15.4783 158.574 15.6864 157.997 15.6807C155.841 15.655 153.684 15.6579 151.527 15.6807C150.98 15.6864 150.814 15.4926 150.814 14.9795C150.829 10.3189 150.829 5.65826 150.814 0.997648C150.814 0.484553 151.018 0.36198 151.504 0.367681C153.661 0.387635 155.817 0.396187 157.974 0.364831C158.571 0.356279 158.786 0.530161 158.775 1.12307C158.754 2.14913 158.758 3.17658 158.762 4.26453C158.764 4.72711 158.766 5.20062 158.766 5.68961C158.897 5.61432 159.017 5.54991 159.128 5.49062L159.128 5.49036C159.352 5.3702 159.536 5.27109 159.7 5.14516C160.475 4.5547 161.248 3.96044 162.02 3.36606L162.024 3.36338C163.145 2.50099 164.267 1.63836 165.396 0.786709C165.664 0.584321 166.031 0.399037 166.354 0.396187C168.48 0.374808 170.606 0.37748 172.732 0.380153C173.441 0.381043 174.15 0.381934 174.858 0.381934C174.943 0.381934 175.028 0.393993 175.112 0.406054C175.144 0.410578 175.176 0.415103 175.208 0.418991C175.243 0.476001 175.275 0.530161 175.307 0.587172C174.909 0.883838 174.512 1.1817 174.114 1.47972L174.111 1.48193C173.448 1.97923 172.784 2.47694 172.117 2.97021C171.798 3.20525 171.48 3.44058 171.162 3.67592C169.767 4.70778 168.372 5.73981 166.959 6.74716C166.415 7.13483 166.415 7.37712 166.915 7.81895C169.14 9.78971 171.345 11.7826 173.549 13.7756L173.55 13.7759L173.55 13.7765Z" fill="currentColor"/>
<path fill-rule="evenodd" clip-rule="evenodd" d="M121.682 1.20573C120.058 0.515903 118.332 0.379078 116.586 0.379078C113.402 0.380978 110.219 0.380345 107.036 0.379712C105.444 0.379395 103.852 0.379078 102.26 0.379078C102.068 0.379078 101.874 0.389654 101.685 0.400003C101.596 0.40485 101.508 0.409647 101.422 0.413285C101.408 0.462352 101.394 0.502243 101.383 0.536318C101.363 0.595283 101.349 0.636833 101.349 0.678383C101.348 2.05228 101.348 3.4264 101.347 4.80063C101.347 8.23063 101.346 11.6615 101.337 15.0906C101.337 15.5211 101.5 15.6778 101.931 15.675C104.161 15.6664 106.39 15.6607 108.62 15.6778C109.103 15.6807 109.26 15.4926 109.254 15.0479C109.247 14.5427 109.248 14.0368 109.25 13.5309V13.5295C109.252 13.0653 109.254 12.6011 109.248 12.1375C109.242 11.6558 109.449 11.4448 109.947 11.4648C110.479 11.4847 111.015 11.4847 111.548 11.4648C112.358 11.4378 113.17 11.419 113.982 11.4002C116 11.3536 118.018 11.3069 120.023 11.1341C121.627 10.9973 123.044 10.2191 123.839 8.71116C124.523 7.41703 124.654 6.07728 124.392 4.62066C124.095 2.96165 123.21 1.8528 121.676 1.20003L121.682 1.20573ZM115.212 6.87258C113.422 6.91818 111.632 6.90963 109.842 6.88113C109.653 6.87828 109.353 6.63028 109.306 6.445C109.216 6.08868 109.199 5.67821 109.295 5.32759C109.344 5.14516 109.697 4.93992 109.924 4.92852C110.561 4.89498 111.202 4.89998 111.843 4.90497C112.073 4.90677 112.304 4.90856 112.534 4.90856V4.91711C112.795 4.91711 113.057 4.91558 113.318 4.91404C113.928 4.91045 114.538 4.90685 115.145 4.92282C115.922 4.94277 116.199 5.21927 116.231 5.85779C116.266 6.57327 115.797 6.85832 115.209 6.87258H115.212Z" fill="currentColor"/>
<path d="M13.3569 0.384827C15.7464 0.388753 18.1366 0.39268 20.5253 0.367682H20.5224C21.2384 0.359131 21.5265 0.533013 21.4916 1.27415C21.4392 2.47707 21.4596 3.68569 21.4858 4.89147C21.5003 5.47297 21.2617 5.69816 20.6737 5.69246C19.9585 5.68524 19.2428 5.68768 18.527 5.69011C17.5474 5.69344 16.5677 5.69677 15.589 5.67536C14.9254 5.66111 14.6954 5.8806 14.7012 6.53052C14.7216 8.6456 14.7173 10.7607 14.7131 12.8757C14.7118 13.4801 14.7106 14.0844 14.71 14.6887C14.7071 15.6522 14.678 15.6779 13.6767 15.6779C13.041 15.6787 12.4052 15.6769 11.7694 15.675C10.3707 15.6708 8.97198 15.6666 7.57325 15.6921C6.88345 15.7064 6.70299 15.4584 6.70881 14.8255C6.7196 13.5429 6.71852 12.2608 6.71743 10.9788C6.71618 9.49438 6.71492 8.01001 6.7321 6.52482C6.73792 5.8749 6.54 5.66111 5.87057 5.67536C4.96309 5.69674 4.05477 5.69358 3.14651 5.69041C2.35937 5.68767 1.57227 5.68493 0.785799 5.69816C0.174579 5.70957 -0.0146081 5.49008 -5.52021e-05 4.91142C0.0348717 3.63438 0.0377822 2.35735 -5.52021e-05 1.08031C-0.0175186 0.498807 0.212417 0.367682 0.762515 0.370533C3.25106 0.387636 5.7396 0.385498 8.22814 0.38336C9.05765 0.382648 9.88716 0.381935 10.7167 0.381935C11.5966 0.381935 12.4767 0.383381 13.3569 0.384827Z" fill="currentColor"/>
</svg>
