<svg xmlns="http://www.w3.org/2000/svg" version="1.1" xmlns:xlink="http://www.w3.org/1999/xlink" xmlns:svgjs="http://svgjs.com/svgjs" width="32" height="32"><svg width="32" height="32" viewBox="0 0 32 32" fill="none" xmlns="http://www.w3.org/2000/svg">
<rect width="32" height="32" rx="12" fill="#E8E0D5"></rect>
<path fill-rule="evenodd" clip-rule="evenodd" d="M3.19995 14.8H28V17.2H3.19995V14.8Z" fill="#232740"></path>
<path d="M17.6 16C17.6 18.6509 15.451 20.8 12.8 20.8C10.149 20.8 8 18.6509 8 16C8 13.349 10.149 11.2 12.8 11.2C15.451 11.2 17.6 13.349 17.6 16Z" fill="#E8E0D5"></path>
<path fill-rule="evenodd" clip-rule="evenodd" d="M12.8 18.4C14.1255 18.4 15.2 17.3254 15.2 16C15.2 14.6745 14.1255 13.6 12.8 13.6C11.4745 13.6 10.4 14.6745 10.4 16C10.4 17.3254 11.4745 18.4 12.8 18.4ZM12.8 20.8C15.451 20.8 17.6 18.6509 17.6 16C17.6 13.349 15.451 11.2 12.8 11.2C10.149 11.2 8 13.349 8 16C8 18.6509 10.149 20.8 12.8 20.8Z" fill="#232740"></path>
</svg><style>@media (prefers-color-scheme: light) { :root { filter: none; } }
</style></svg>
