<svg width="688" height="57" viewBox="0 0 688 57" fill="none" xmlns="http://www.w3.org/2000/svg">
<g clip-path="url(#clip0_35_272)">
<path fill-rule="evenodd" clip-rule="evenodd" d="M513.45 16.26C509.7 7.89005 502.15 4.21005 493.79 2.47005C486.77 1.00005 479.31 0.0800461 472.33 0.0200461C463.99 -0.109954 455.71 0.880046 447.69 3.30005C440.95 5.33005 435.29 8.86005 431.61 15.09C428.938 19.6213 428.976 24.5714 429.014 29.5533C429.016 29.8488 429.018 30.1444 429.02 30.44C429.07 39.59 433.54 45.95 441.35 50.25C448.97 54.45 457.41 55.36 465.86 55.9C474.85 56.48 483.83 56.01 492.66 54.11C497.61 53.04 502.32 51.27 506.48 48.25C514.19 42.65 516.33 34.68 515.76 25.79C515.55 22.57 514.76 19.21 513.44 16.26H513.45ZM481.57 37.05C475.47 39.46 469.15 39.55 463.1 36.99C459.31 35.39 456.86 32.37 457.11 27.86C456.74 23.35 459.52 20.06 464.15 18.6C469.91 16.79 475.76 16.76 481.47 19.11C485.4 20.73 487.41 23.56 487.45 27.89C487.48 32.28 485.54 35.46 481.56 37.04L481.57 37.05Z" fill="#232740"/>
<path d="M321.02 1.42009C320.06 1.44009 318.81 2.36009 318.22 3.23009C316.037 6.43023 313.936 9.68553 311.835 12.943L311.829 12.9509L311.828 12.9536L311.826 12.9557L311.826 12.957C310.83 14.4994 309.835 16.0423 308.83 17.5801C307.21 20.0601 307.07 20.0601 305.12 17.5601C304.224 16.4075 303.325 15.2572 302.426 14.1069L302.425 14.1057C299.649 10.5558 296.873 7.00501 294.2 3.38009C293.02 1.78009 291.74 1.30009 289.83 1.30009C287.457 1.3074 285.083 1.31545 282.709 1.3235L282.707 1.32351C265.599 1.38155 248.486 1.43961 231.38 1.22009C227.53 1.17009 225.71 2.52009 224.1 5.75009C221.882 10.1866 219.449 14.5112 216.939 18.9751C215.85 20.9104 214.747 22.872 213.64 24.8801C213.42 24.5569 213.22 24.2745 213.038 24.0173L213.037 24.0152L213.036 24.0138C212.656 23.4768 212.353 23.0493 212.11 22.5901C210.549 19.6641 208.994 16.7336 207.439 13.804L207.435 13.796L207.434 13.7949L207.434 13.794C205.675 10.4792 203.917 7.16543 202.15 3.86009C202.121 3.80559 202.092 3.75124 202.063 3.69711L202.061 3.69225L202.051 3.67438L202.048 3.66718C201.373 2.39252 200.769 1.25104 198.75 1.27009C188.26 1.41009 177.77 1.37009 167.27 1.30009C165.4 1.29009 164.78 1.93009 164.78 3.73009C164.81 19.9201 164.81 36.1101 164.78 52.3001C164.78 54.2901 165.46 55.0801 167.56 55.0401C174.72 54.9301 181.88 54.9201 189.04 55.0401C191.54 55.0901 192.17 54.1001 192.13 51.8001C192.035 46.8051 192.059 41.8102 192.083 36.8152V36.8133C192.089 35.4989 192.096 34.1845 192.1 32.8701C192.1 32.3386 192.148 31.8071 192.211 31.1084C192.248 30.703 192.29 30.2406 192.33 29.6901C192.585 30.0707 192.767 30.3297 192.903 30.523C193.081 30.7761 193.181 30.917 193.26 31.0701C194.121 32.6455 194.984 34.2199 195.847 35.7943L195.848 35.7961L195.848 35.7976L195.849 35.7986C198.972 41.4983 202.095 47.1977 205.15 52.9401C205.96 54.4601 206.93 55.1001 208.65 55.0301C209.821 54.9846 210.996 55.0007 212.17 55.0168C213.831 55.0397 215.489 55.0625 217.13 54.9101C218.21 54.8101 219.64 53.9601 220.17 53.0401C222.983 48.0928 225.712 43.0985 228.44 38.1055C229.687 35.8218 230.935 33.5385 232.19 31.2601C232.33 30.9985 232.556 30.7817 232.922 30.4305C233.13 30.2312 233.382 29.9886 233.69 29.6701V33.1001C233.69 35.0415 233.694 36.9828 233.698 38.9242V38.9288C233.706 43.2959 233.715 47.663 233.68 52.0301C233.66 54.2101 234.4 55.1001 236.75 55.0501C241.543 54.9541 246.342 54.9709 251.138 54.9878H251.141C253.338 54.9955 255.535 55.0032 257.73 55.0001C261.04 55.0001 261.11 54.9201 261.11 51.6701V5.34009C261.11 4.71709 261.15 4.0941 261.202 3.26151L261.202 3.26044L261.203 3.25884L261.203 3.25548C261.23 2.83331 261.26 2.35726 261.29 1.80009C261.96 2.5986 262.562 3.32333 263.123 3.99883L263.128 4.004L263.13 4.00678C264.098 5.17212 264.944 6.1911 265.81 7.19009C268.055 9.79372 270.304 12.3948 272.553 14.9958C278.026 21.3258 283.498 27.6554 288.92 34.0201C289.58 34.7901 290.21 36.3101 289.87 36.9901C289.51 37.7101 287.99 38.1301 286.95 38.2001C285.162 38.3193 283.369 38.2959 281.481 38.2713C280.677 38.2608 279.856 38.2501 279.01 38.2501C279.01 39.4491 279.007 40.6294 279.004 41.7951C278.994 45.8116 278.984 49.6559 279.1 53.5001C279.12 54.0101 280.38 54.8701 281.11 54.9101C283.93 55.0801 286.78 55.1401 289.6 54.9401L289.871 54.9217C293.752 54.658 297.658 54.3926 301.46 53.6401C307.42 52.4601 311.25 48.1401 314.8 43.6501C323.87 32.1501 332.91 20.6301 341.93 9.09009C343.15 7.53553 344.31 5.93365 345.522 4.25904C346.158 3.38062 346.809 2.48219 347.49 1.56009C347.158 1.51044 346.906 1.46662 346.703 1.43143C346.376 1.37447 346.178 1.34009 345.98 1.34009C344.314 1.33809 342.648 1.33409 340.982 1.33009C334.318 1.31409 327.656 1.29809 321 1.41009L321.02 1.42009Z" fill="#232740"/>
<path d="M157.24 1.29993C150.16 1.38993 143.08 1.40993 136.01 1.28993C133.98 1.24993 132.59 1.95993 131.23 3.34993C124.184 10.5672 117.094 17.7404 110.004 24.9135C108.823 26.1087 107.641 27.3046 106.46 28.4999C106.079 28.8876 105.686 29.2563 105.179 29.7318C104.862 30.0291 104.501 30.3684 104.07 30.7799C104.01 30.199 103.947 29.6971 103.891 29.2462C103.788 28.4244 103.706 27.7722 103.7 27.1199C103.67 19.3999 103.65 11.6799 103.7 3.95993C103.71 2.11993 103.19 1.26993 101.14 1.28993C93.65 1.38993 86.15 1.37993 78.66 1.28993C76.81 1.26993 76.19 1.85993 76.2 3.71993C76.25 19.9099 76.26 36.0999 76.2 52.2899C76.2 54.3499 76.89 55.0499 78.95 55.0299C85.69 54.9399 92.44 54.8999 99.18 55.0499C101.62 55.0999 103.37 54.3799 105.07 52.6199C111.411 46.0513 117.819 39.5507 124.228 33.05L124.25 33.0277C125.99 31.2622 127.731 29.4968 129.47 27.7299C129.945 27.2478 130.462 26.8026 130.98 26.3567C131.224 26.1459 131.469 25.935 131.71 25.7199C131.91 25.8199 132.12 25.9199 132.32 26.0099V28.9099C132.32 31.0541 132.324 33.1983 132.328 35.3425C132.338 40.9183 132.348 46.4941 132.29 52.0699C132.27 54.1699 132.88 55.0599 135.12 55.0299C142.45 54.9299 149.78 54.9399 157.1 55.0299C159.2 55.0499 159.87 54.1999 159.87 52.2199C159.83 36.1099 159.83 20.0099 159.87 3.89993C159.87 1.97993 159.22 1.26993 157.25 1.29993H157.24Z" fill="#232740"/>
<path d="M684.38 1.30995C686.42 1.27995 687.15 1.90995 687.15 3.98995L687.14 4.00995C687.09 20.11 687.09 36.2 687.14 52.2999C687.15 54.34 686.36 55.07 684.33 55.0499C677.01 54.9699 669.68 54.95 662.36 55.0499C660.1 55.0799 659.51 54.13 659.53 52.06C659.585 45.9956 659.572 39.9375 659.559 33.8758C659.556 32.2208 659.552 30.5656 659.55 28.9099C659.55 28.275 659.506 27.64 659.448 26.791V26.7891C659.418 26.3549 659.384 25.8647 659.35 25.2899C658.91 25.7015 658.529 26.0513 658.189 26.3636L658.185 26.3675C657.569 26.9336 657.087 27.3764 656.63 27.8399L654.555 29.9472C647.046 37.5751 639.533 45.2066 632.07 52.88C630.58 54.42 629.02 55.1 626.83 55.06C620.01 54.92 613.18 54.95 606.36 55.04C604.25 55.07 603.42 54.42 603.42 52.2C603.49 35.9399 603.47 19.67 603.42 3.40995C603.42 1.90995 603.84 1.32995 605.37 1.32995C613.19 1.37995 621.02 1.38995 628.84 1.32995C630.77 1.30995 630.98 2.36995 630.98 3.86995C630.967 9.06995 630.971 14.2699 630.976 19.4699C630.978 22.0699 630.98 24.6699 630.98 27.2699V30.1299C631.1 30.1599 631.222 30.1924 631.345 30.2249L631.453 30.2535C631.539 30.2763 631.625 30.2988 631.71 30.3199C632.726 29.3169 633.745 28.3159 634.765 27.3144L634.772 27.3075L634.777 27.3033C636.987 25.1332 639.2 22.9606 641.38 20.7599C647.15 14.9399 652.91 9.12995 658.61 3.24995C659.98 1.83995 661.41 1.26995 663.41 1.29995C670.4 1.41995 677.39 1.40995 684.38 1.30995Z" fill="#232740"/>
<path d="M596.276 48.3299L596.36 48.4075C597.773 49.7119 599.186 51.0162 600.6 52.3201L600.59 52.2901C600.98 52.6556 601.336 53.0594 601.79 53.5753L601.792 53.5771C602.07 53.8935 602.387 54.2524 602.77 54.6701C602.336 54.7209 601.972 54.7705 601.653 54.814C601.029 54.8989 600.58 54.9601 600.13 54.9601C598.116 54.9621 596.102 54.9661 594.088 54.9701C586.029 54.9861 577.966 55.0021 569.91 54.8901C568.59 54.8801 567 54.1501 566.03 53.2401C561.915 49.3837 557.869 45.4576 553.823 41.5315L553.821 41.5291L553.816 41.524C551.926 39.6903 550.037 37.8567 548.14 36.0301C547.748 35.6569 547.32 35.3198 546.767 34.8846L546.763 34.8817L546.755 34.8754C546.437 34.6248 546.078 34.3414 545.66 34.0001C545.631 34.5515 545.6 35.0164 545.573 35.4266C545.526 36.1323 545.49 36.6762 545.49 37.2201L545.483 38.8947V38.9098C545.464 43.4084 545.445 47.9132 545.49 52.4101C545.51 54.3001 544.82 55.0301 542.84 55.0101C535.43 54.9201 528.02 54.9301 520.61 55.0101C518.73 55.0301 518.16 54.3501 518.16 52.5501C518.21 36.2001 518.21 19.8501 518.16 3.5001C518.16 1.7001 518.86 1.2701 520.53 1.2901C527.94 1.3601 535.35 1.3901 542.76 1.2801C544.81 1.2501 545.55 1.8601 545.51 3.9401C545.44 7.53963 545.453 11.1441 545.468 14.9607C545.474 16.5835 545.48 18.2447 545.48 19.9601C545.932 19.696 546.344 19.47 546.724 19.262L546.725 19.2611C547.494 18.8396 548.128 18.4919 548.69 18.0501C551.353 15.9787 554.007 13.8939 556.662 11.8088L556.674 11.7994C560.526 8.77401 564.379 5.7478 568.26 2.7601C569.18 2.0501 570.44 1.4001 571.55 1.3901C578.855 1.3151 586.16 1.32447 593.465 1.33385C595.9 1.33697 598.335 1.3401 600.77 1.3401C601.061 1.3401 601.352 1.3824 601.643 1.42471C601.752 1.44058 601.861 1.45646 601.97 1.4701C602.09 1.6701 602.2 1.8601 602.31 2.0601C600.944 3.10084 599.578 4.14579 598.213 5.19126L598.203 5.199C595.924 6.9436 593.643 8.68965 591.35 10.4201C590.256 11.2446 589.163 12.0702 588.07 12.8958C583.277 16.5157 578.483 20.1362 573.63 23.6701C571.76 25.0301 571.76 25.8801 573.48 27.4301C581.124 34.3438 588.698 41.3351 596.273 48.3269L596.274 48.3279L596.276 48.3299Z" fill="#232740"/>
<path fill-rule="evenodd" clip-rule="evenodd" d="M418.07 4.23008C412.49 1.81008 406.56 1.33008 400.56 1.33008C389.62 1.33674 378.685 1.33452 367.749 1.3323C362.28 1.33119 356.81 1.33008 351.34 1.33008C350.679 1.33008 350.014 1.36718 349.363 1.40348C349.058 1.42049 348.757 1.43732 348.46 1.45008C348.412 1.62221 348.366 1.76215 348.327 1.88169C348.258 2.08855 348.21 2.23431 348.21 2.38008C348.207 7.19986 348.206 12.0205 348.205 16.8414C348.202 28.8743 348.199 40.9101 348.17 52.9401C348.17 54.4501 348.73 55.0001 350.21 54.9901C357.87 54.9601 365.53 54.9401 373.19 55.0001C374.85 55.0101 375.39 54.3501 375.37 52.7901C375.344 51.0179 375.351 49.2431 375.357 47.4683V47.4634C375.363 45.8348 375.369 44.2063 375.35 42.5801C375.33 40.8901 376.04 40.1501 377.75 40.2201C379.58 40.2901 381.42 40.2901 383.25 40.2201C386.036 40.1254 388.825 40.0595 391.615 39.9937C398.547 39.8299 405.482 39.6662 412.37 39.0601C417.88 38.5801 422.75 35.8501 425.48 30.5601C427.83 26.0201 428.28 21.3201 427.38 16.2101C426.36 10.3901 423.32 6.50008 418.05 4.21008L418.07 4.23008ZM395.84 24.1101C389.69 24.2701 383.54 24.2401 377.39 24.1401C376.74 24.1301 375.71 23.2601 375.55 22.6101C375.24 21.3601 375.18 19.9201 375.51 18.6901C375.68 18.0501 376.89 17.3301 377.67 17.2901C379.861 17.1724 382.064 17.19 384.265 17.2075C385.057 17.2138 385.849 17.2201 386.64 17.2201V17.2501C387.537 17.2501 388.435 17.2447 389.332 17.2393C391.428 17.2267 393.524 17.2141 395.61 17.2701C398.28 17.3401 399.23 18.3101 399.34 20.5501C399.46 23.0601 397.85 24.0601 395.83 24.1101H395.84Z" fill="#232740"/>
<path d="M45.8912 1.35025C54.1009 1.36402 62.3131 1.3778 70.52 1.2901H70.51C72.97 1.2601 73.96 1.8701 73.84 4.4701C73.66 8.6901 73.73 12.9301 73.82 17.1601C73.87 19.2001 73.05 19.9901 71.03 19.9701C68.5727 19.9448 66.1137 19.9533 63.6544 19.9618C60.2888 19.9735 56.9227 19.9852 53.56 19.9101C51.28 19.8601 50.49 20.6301 50.51 22.9101C50.58 30.3301 50.5653 37.75 50.5506 45.17C50.5464 47.29 50.5422 49.4101 50.54 51.5301C50.53 54.9101 50.43 55.0001 46.99 55.0001C44.8056 55.0032 42.6213 54.9966 40.437 54.9899C35.6313 54.9753 30.8256 54.9607 26.02 55.0501C23.65 55.1001 23.03 54.2301 23.05 52.0101C23.0871 47.5103 23.0833 43.0127 23.0796 38.5153C23.0753 33.3077 23.071 28.1003 23.13 22.8901C23.15 20.6101 22.47 19.8601 20.17 19.9101C17.0521 19.9851 13.9314 19.974 10.8108 19.9629C8.10639 19.9533 5.40211 19.9437 2.69999 19.9901C0.599992 20.0301 -0.0500083 19.2601 -8.26363e-06 17.2301C0.119992 12.7501 0.129992 8.2701 -8.26363e-06 3.7901C-0.0600083 1.7501 0.729992 1.2901 2.61999 1.3001C11.17 1.3601 19.72 1.3526 28.27 1.3451C31.12 1.3426 33.97 1.3401 36.82 1.3401C39.8431 1.3401 42.867 1.34517 45.8912 1.35025Z" fill="#232740"/>
</g>
<defs>
<clipPath id="clip0_35_272">
<rect width="687.15" height="56.13" fill="white"/>
</clipPath>
</defs>
</svg>
