<svg width="16" height="200" viewBox="0 0 16 200" fill="none" xmlns="http://www.w3.org/2000/svg">
<path fill-rule="evenodd" clip-rule="evenodd" d="M4.63496 50.5567C2.24907 51.6482 1.20008 53.8457 0.704084 56.2789C0.285057 58.3221 0.0228084 60.4934 0.00570529 62.525C-0.0313514 64.9524 0.250851 67.3624 0.940678 69.6966C1.51933 71.6584 2.52557 73.3058 4.30145 74.3768C5.59309 75.1544 7.00412 75.1435 8.42424 75.1325C8.50847 75.1318 8.59273 75.1312 8.677 75.1307C11.2852 75.1161 13.0982 73.8151 14.3239 71.5419C15.5211 69.3241 15.7805 66.8676 15.9344 64.4081C16.0998 61.7915 15.9658 59.1778 15.4242 56.6078C15.1192 55.1671 14.6146 53.7962 13.7538 52.5854C12.1575 50.3413 9.88563 49.7185 7.35151 49.8844C6.43364 49.9455 5.47586 50.1754 4.63496 50.5596L4.63496 50.5567ZM10.5612 59.8356C11.2482 61.6111 11.2738 63.4506 10.5441 65.2114C10.088 66.3146 9.22716 67.0276 7.94157 66.9549C6.65598 67.0626 5.71816 66.2534 5.30198 64.9058C4.78604 63.2294 4.77748 61.5267 5.44736 59.8647C5.90914 58.7209 6.71584 58.1358 7.95012 58.1242C9.2015 58.1155 10.108 58.6801 10.5584 59.8385L10.5612 59.8356Z" fill="#E8E0D5"/>
<path d="M0.404792 106.565C0.410493 106.844 0.672742 107.208 0.920737 107.38C1.83295 108.015 2.76088 108.627 3.68943 109.238L3.69168 109.24L3.69246 109.24L3.69304 109.241L3.69342 109.241C4.1331 109.531 4.5729 109.82 5.01124 110.113C5.71817 110.584 5.71817 110.625 5.00554 111.193C4.67698 111.453 4.34911 111.715 4.0212 111.977L4.02085 111.977C3.00895 112.785 1.99679 113.593 0.963496 114.371C0.507412 114.714 0.370586 115.087 0.370586 115.643C0.37267 116.334 0.374966 117.025 0.377262 117.716L0.377264 117.716C0.393809 122.695 0.41036 127.677 0.347783 132.655C0.33353 133.776 0.718351 134.306 1.63907 134.774C2.90372 135.42 4.13646 136.128 5.4089 136.858C5.96055 137.175 6.51972 137.496 7.09213 137.819C7.00001 137.883 6.9195 137.941 6.84618 137.994L6.84559 137.994L6.8452 137.994C6.69212 138.105 6.57025 138.193 6.43936 138.264C5.60528 138.718 4.76996 139.171 3.93485 139.623L3.93258 139.625L3.93228 139.625L3.932 139.625C2.98712 140.137 2.04252 140.649 1.10032 141.163C1.08479 141.171 1.06929 141.18 1.05387 141.188L1.05248 141.189L1.04739 141.192L1.04533 141.193C0.681988 141.389 0.356607 141.565 0.362036 142.152C0.401943 145.206 0.390541 148.259 0.370588 151.315C0.367737 151.859 0.550171 152.04 1.06327 152.04C5.67827 152.031 10.2933 152.031 14.9083 152.04C15.4755 152.04 15.7007 151.842 15.6893 151.231C15.658 149.147 15.6551 147.063 15.6893 144.979C15.7036 144.251 15.4214 144.068 14.7657 144.079C13.3419 144.107 11.9181 144.1 10.4943 144.093L10.4937 144.093C10.119 144.091 9.74437 144.089 9.3697 144.088C9.21819 144.088 9.06669 144.074 8.86752 144.056C8.75197 144.045 8.62017 144.033 8.46323 144.021C8.57173 143.947 8.64556 143.894 8.70065 143.854C8.77279 143.802 8.81297 143.773 8.8566 143.75C9.30566 143.5 9.75446 143.249 10.2032 142.998L10.2038 142.997L10.2042 142.997L10.2045 142.997C11.8292 142.088 13.4538 141.179 15.0907 140.29C15.524 140.054 15.7064 139.772 15.6865 139.271C15.6735 138.93 15.6781 138.588 15.6827 138.247C15.6892 137.763 15.6957 137.28 15.6523 136.803C15.6237 136.488 15.3815 136.072 15.1192 135.918C13.709 135.099 12.2853 134.305 10.8621 133.511C10.2111 133.148 9.56023 132.785 8.91076 132.419C8.8362 132.379 8.77439 132.313 8.67427 132.206C8.61747 132.146 8.54833 132.072 8.45753 131.983L9.43526 131.983C9.98865 131.983 10.542 131.982 11.0954 131.981L11.0968 131.981C12.3416 131.978 13.5865 131.976 14.8313 131.986C15.4527 131.992 15.7064 131.776 15.6922 131.092C15.6648 129.697 15.6696 128.301 15.6744 126.905L15.6744 126.904C15.6766 126.264 15.6788 125.625 15.6779 124.986C15.6779 124.022 15.6551 124.002 14.7287 124.002L1.5222 124.002C1.34461 124.002 1.16703 123.991 0.929694 123.975L0.929389 123.975L0.928933 123.975L0.927977 123.975C0.807636 123.967 0.671935 123.959 0.513113 123.95C0.740732 123.755 0.947316 123.579 1.13987 123.416L1.14134 123.415L1.14214 123.414C1.47432 123.133 1.76478 122.886 2.04955 122.634C2.79172 121.981 3.53317 121.326 4.27459 120.672C6.07897 119.079 7.88323 117.486 9.69751 115.908C9.917 115.716 10.3503 115.532 10.5441 115.631C10.7494 115.736 10.8691 116.178 10.889 116.481C10.923 117.002 10.9163 117.523 10.9093 118.073C10.9063 118.307 10.9033 118.546 10.9033 118.792C11.2451 118.792 11.5815 118.793 11.9138 118.794C13.0587 118.797 14.1545 118.8 15.2503 118.766C15.3957 118.76 15.6409 118.393 15.6523 118.181C15.7007 117.36 15.7178 116.531 15.6608 115.71L15.6556 115.631C15.5804 114.501 15.5047 113.364 15.2902 112.258C14.9539 110.523 13.7224 109.408 12.4426 108.375C9.16446 105.735 5.88065 103.104 2.59114 100.479C2.14802 100.124 1.6914 99.7862 1.21404 99.4333C0.963648 99.2482 0.707548 99.0589 0.444699 98.8606C0.430547 98.9573 0.418057 99.0306 0.408024 99.0896C0.391788 99.1849 0.381988 99.2425 0.381988 99.3001C0.381418 99.785 0.380277 100.27 0.379137 100.755C0.374576 102.694 0.370017 104.633 0.401942 106.571L0.404792 106.565Z" fill="#E8E0D5"/>
<path d="M0.370544 154.234C0.396199 156.295 0.4019 158.356 0.367694 160.413C0.356292 161.004 0.558679 161.409 0.954902 161.805C3.0122 163.855 5.05693 165.919 7.10167 167.982C7.44235 168.326 7.78323 168.67 8.12397 169.014C8.23447 169.125 8.33957 169.239 8.47513 169.387C8.55988 169.479 8.65657 169.584 8.77389 169.71C8.60829 169.727 8.46522 169.746 8.33671 169.762C8.10243 169.792 7.91652 169.816 7.7306 169.817C5.53 169.826 3.32939 169.832 1.12878 169.817C0.604288 169.815 0.361993 169.966 0.367694 170.563C0.396199 172.743 0.393349 174.925 0.367694 177.105C0.361993 177.644 0.530174 177.824 1.06037 177.821C5.67537 177.807 10.2904 177.804 14.9054 177.821C15.4926 177.821 15.6921 177.621 15.6864 177.021C15.6608 175.059 15.6494 173.095 15.6921 171.133C15.7064 170.423 15.5011 169.913 14.9994 169.419C13.127 167.573 11.274 165.708 9.42098 163.843L9.41463 163.836C8.91138 163.33 8.40812 162.823 7.90448 162.317C7.76705 162.179 7.64014 162.028 7.51303 161.877C7.45295 161.806 7.39283 161.735 7.33153 161.665C7.36003 161.607 7.38854 161.546 7.41419 161.487L8.24084 161.487C8.85205 161.487 9.46326 161.486 10.0745 161.485C11.6639 161.482 13.2533 161.479 14.8427 161.496C15.4413 161.502 15.695 161.324 15.6864 160.672C15.6579 158.539 15.6608 156.406 15.6864 154.275C15.6921 153.664 15.4498 153.469 14.8854 153.469C10.2932 153.48 5.70388 153.48 1.11168 153.469C0.56438 153.469 0.361992 153.658 0.370544 154.231L0.370544 154.234Z" fill="#E8E0D5"/>
<path d="M0.373393 0.806305C0.364841 0.212555 0.544424 7.62703e-05 1.13733 7.62443e-05L1.14303 0.00299067C5.73238 0.0175321 10.3189 0.0175319 14.9082 0.00299007C15.4897 7.5617e-05 15.6978 0.229995 15.6921 0.820861C15.6693 2.9514 15.6636 5.08485 15.6921 7.21539C15.7007 7.87318 15.4299 8.04489 14.8398 8.03906C13.1112 8.02307 11.3843 8.02681 9.65637 8.03058C9.18462 8.03162 8.7128 8.03264 8.24084 8.03326C8.05985 8.03326 7.87885 8.04602 7.63682 8.06306L7.63629 8.06306C7.51253 8.07179 7.3728 8.08163 7.20895 8.09148C7.32626 8.21951 7.42599 8.33032 7.51501 8.42926L7.51611 8.43048C7.67749 8.60983 7.80371 8.75011 7.93584 8.88315L8.53651 9.48695C10.7109 11.6727 12.8862 13.8594 15.0736 16.0315C15.5125 16.4652 15.7064 16.9192 15.695 17.5566C15.6551 19.5417 15.6636 21.5296 15.6893 23.5146C15.6978 24.1287 15.5125 24.3703 14.8797 24.3703C10.2448 24.3499 5.60696 24.3558 0.972004 24.3703C0.544425 24.3703 0.379095 24.2481 0.379095 23.8027C0.393347 21.5267 0.396198 19.2477 0.379095 16.9716C0.373393 16.4099 0.675549 16.3488 1.10313 16.3488C2.5854 16.3527 4.06767 16.3514 5.54995 16.3501C6.29108 16.3494 7.03222 16.3488 7.77336 16.3488L8.58861 16.3488C8.59716 16.3138 8.60642 16.2782 8.61569 16.2425L8.62383 16.2112C8.63033 16.186 8.63673 16.161 8.64277 16.1363C8.35686 15.8407 8.07152 15.5439 7.78603 15.247L7.78406 15.245L7.78285 15.2437C7.16426 14.6004 6.54496 13.9563 5.91766 13.3218C4.25866 11.6424 2.6025 9.96588 0.926395 8.30685C0.524471 7.90811 0.361991 7.4919 0.370543 6.90979C0.404749 4.87529 0.401898 2.84079 0.373393 0.806305Z" fill="#E8E0D5"/>
<path d="M13.7766 26.4496L13.7987 26.4251C14.1705 26.0138 14.5423 25.6025 14.914 25.1911L14.9054 25.194C15.0096 25.0804 15.1247 24.9769 15.2718 24.8446L15.2723 24.8442C15.3625 24.7631 15.4648 24.6711 15.5838 24.5595C15.5983 24.6857 15.6125 24.7918 15.6249 24.8847C15.649 25.0661 15.6665 25.197 15.6665 25.3279C15.6671 25.914 15.6682 26.5002 15.6694 27.0864C15.6739 29.432 15.6785 31.7788 15.6466 34.1236C15.6437 34.5078 15.4356 34.9706 15.1762 35.2529C14.0769 36.4507 12.9578 37.6282 11.8387 38.8057L11.838 38.8065L11.8365 38.808C11.3138 39.358 10.7911 39.9079 10.2705 40.4599C10.1641 40.5741 10.068 40.6987 9.94392 40.8595L9.94312 40.8606L9.94132 40.8629C9.86987 40.9555 9.7891 41.0602 9.6918 41.1818C9.84897 41.1903 9.98149 41.1993 10.0984 41.2072C10.2996 41.2208 10.4546 41.2312 10.6097 41.2312L11.087 41.2332L11.0913 41.2332C12.3737 41.2387 13.6578 41.2442 14.9396 41.2312C15.4784 41.2254 15.6865 41.4263 15.6808 42.0025C15.6551 44.1593 15.658 46.316 15.6808 48.4727C15.6865 49.0199 15.4926 49.1859 14.9795 49.1859C10.3189 49.1713 5.65831 49.1713 0.997702 49.1859C0.484607 49.1859 0.362035 48.9821 0.367736 48.496C0.387689 46.3393 0.396241 44.1826 0.364885 42.0258C0.356333 41.4292 0.530216 41.2138 1.12312 41.2254C2.14918 41.2458 3.17664 41.2419 4.26458 41.2377C4.72716 41.236 5.20068 41.2342 5.68967 41.2342C5.61438 41.1025 5.54996 40.9826 5.49068 40.8722L5.49041 40.8717C5.37025 40.648 5.27114 40.4635 5.14522 40.2999C4.55475 39.5249 3.96049 38.7523 3.36611 37.9796L3.36343 37.9761C2.50104 36.8549 1.63842 35.7335 0.786763 34.6039C0.584375 34.3361 0.399091 33.9694 0.396241 33.6463C0.374861 31.5201 0.377534 29.3939 0.380206 27.2678C0.381097 26.559 0.381988 25.8503 0.381988 25.1416C0.381988 25.0569 0.394047 24.9723 0.406107 24.8876C0.410632 24.8559 0.415156 24.8241 0.419044 24.7923C0.476055 24.7574 0.530215 24.7254 0.587225 24.6934C0.883892 25.0911 1.18176 25.4884 1.47977 25.8859L1.48198 25.8888C1.97928 26.5522 2.477 27.2161 2.97026 27.8834C3.2053 28.2017 3.44064 28.5199 3.67597 28.8381C4.70784 30.2331 5.73986 31.6284 6.74721 33.0409C7.13488 33.5852 7.37718 33.5852 7.81901 33.0846C9.78977 30.8596 11.7827 28.6551 13.7757 26.4505L13.776 26.4502L13.7766 26.4496Z" fill="#E8E0D5"/>
<path fill-rule="evenodd" clip-rule="evenodd" d="M1.20579 78.3177C0.515959 79.9418 0.379134 81.6678 0.379134 83.4142C0.381035 86.5982 0.380401 89.781 0.379768 92.9642C0.379451 94.5559 0.379135 96.1479 0.379135 97.74C0.379135 97.9323 0.389711 98.1259 0.400059 98.3153C0.404907 98.4041 0.409704 98.4919 0.413341 98.5782C0.462408 98.5921 0.502299 98.6056 0.536375 98.6171C0.595339 98.637 0.63689 98.651 0.67844 98.651C2.05233 98.6518 3.42646 98.6522 4.80068 98.6526C8.23068 98.6534 11.6615 98.6543 15.0907 98.6626C15.5211 98.6626 15.6779 98.4997 15.6751 98.0689C15.6665 95.8394 15.6608 93.6099 15.6779 91.3804C15.6808 90.8972 15.4926 90.7401 15.0479 90.7459C14.5428 90.7535 14.0369 90.7516 13.531 90.7497L13.5296 90.7497C13.0653 90.7479 12.6011 90.7461 12.1376 90.7517C11.6558 90.7575 11.4449 90.5509 11.4648 90.0532C11.4848 89.5205 11.4848 88.985 11.4648 88.4524C11.4378 87.6415 11.4191 86.8297 11.4003 86.0178C11.3536 84 11.3069 81.9816 11.1342 79.9768C10.9973 78.373 10.2191 76.9556 8.71122 76.161C7.41708 75.477 6.07733 75.3461 4.62072 75.608C2.96171 75.9049 1.85286 76.7897 1.20009 78.3236L1.20579 78.3177ZM6.87263 84.7879C6.91824 86.5779 6.90969 88.368 6.88118 90.158C6.87833 90.3471 6.63034 90.6469 6.44505 90.6935C6.08874 90.7837 5.67826 90.8012 5.32765 90.7051C5.14521 90.6557 4.93998 90.3035 4.92857 90.0765C4.89504 89.4387 4.90003 88.7977 4.90502 88.1571C4.90682 87.9265 4.90862 87.696 4.90862 87.4657L4.91717 87.4657C4.91717 87.2046 4.91563 86.9434 4.91409 86.6821C4.9105 86.0722 4.90691 85.462 4.92287 84.8549C4.94283 84.0778 5.21933 83.8013 5.85784 83.7692C6.57333 83.7343 6.85838 84.2029 6.87263 84.7909L6.87263 84.7879Z" fill="#E8E0D5"/>
<path d="M0.384888 186.643C0.388814 184.254 0.392741 181.863 0.367743 179.475L0.367743 179.478C0.359191 178.762 0.533073 178.473 1.27421 178.508C2.47713 178.561 3.68575 178.54 4.89153 178.514C5.47303 178.5 5.69823 178.738 5.69252 179.326C5.6853 180.041 5.68774 180.757 5.69017 181.473C5.6935 182.453 5.69683 183.432 5.67542 184.411C5.66117 185.075 5.88066 185.305 6.53058 185.299C8.64566 185.278 10.7607 185.283 12.8758 185.287C13.4801 185.288 14.0845 185.289 14.6888 185.29C15.6523 185.293 15.6779 185.322 15.6779 186.323C15.6788 186.959 15.6769 187.595 15.675 188.231C15.6709 189.629 15.6667 191.028 15.6922 192.427C15.7064 193.117 15.4584 193.297 14.8256 193.291C13.5429 193.28 12.2609 193.281 10.9789 193.283C9.49444 193.284 8.01007 193.285 6.52488 193.268C5.87496 193.262 5.66117 193.46 5.67542 194.129C5.6968 195.037 5.69364 195.945 5.69047 196.853C5.68773 197.641 5.68499 198.428 5.69823 199.214C5.70963 199.825 5.49014 200.015 4.91148 200C3.63445 199.965 2.35741 199.962 1.08037 200C0.498868 200.018 0.367743 199.788 0.370594 199.237C0.387697 196.749 0.385559 194.26 0.383421 191.772C0.382708 190.942 0.381996 190.113 0.381996 189.283C0.381996 188.403 0.383442 187.523 0.384888 186.643Z" fill="#E8E0D5"/>
</svg>
